<svg id="pray-night" enable-background="new 0 0 300 300" height="512" viewBox="0 0 300 300" width="512" xmlns="http://www.w3.org/2000/svg"><g><circle cx="178" cy="112.364" fill="#e5efef" r="86"/><path d="m232 126.39c0-55.645-96-100.753-96-100.753s-96 45.108-96 100.753c0 20.717 5.972 39.962 16.188 55.974h-.188v88h160v-88h-.188c10.216-16.012 16.188-35.257 16.188-55.974z" fill="#816982"/><g fill="#fff"><circle cx="160" cy="74.364" r="4"/><circle cx="76" cy="118.364" r="4"/><circle cx="200" cy="206.364" r="4"/><circle cx="168" cy="142.364" r="4"/><circle cx="60" cy="150.364" r="4"/><circle cx="88" cy="154.364" r="4"/><circle cx="76" cy="206.364" r="4"/></g><g><path d="m164.971 218.481h-19.089l1.611-18.35c.336-3.823.083-7.674-.75-11.421l-6.743-30.346-8-36-20-12-14.908 97.244-1.092 14.734c0 11.792 9.152 21.56 20.919 22.326l27.081 1.696-72 12-12.118 12h106.177c14.592 0 26.37-12.048 25.929-26.739-.426-14.198-12.813-25.144-27.017-25.144z" fill="#6b4f5b"/><path d="m166.059 274.364h-106.176c-1.621 0-3.082-.98-3.699-2.477-.617-1.5-.268-3.227.885-4.367l12.117-12c.588-.582 1.342-.965 2.156-1.102l39.982-6.664c-11.183-3.113-19.324-13.398-19.324-25.414l1.104-15.031 14.943-97.551c.201-1.316 1.047-2.449 2.252-3.016 1.207-.57 2.613-.5 3.76.191l20 12c.939.562 1.607 1.492 1.846 2.562l14.744 66.348c.924 4.152 1.203 8.406.83 12.641l-1.229 13.996h14.721c16.623 0 30.535 13.02 31.016 29.023.246 8.176-2.75 15.906-8.438 21.766-5.69 5.864-13.322 9.095-21.49 9.095zm-96.454-8h96.453c5.986 0 11.58-2.367 15.748-6.664 4.168-4.293 6.363-9.961 6.184-15.953-.352-11.727-10.678-21.266-23.02-21.266h-19.088c-1.121 0-2.191-.473-2.949-1.297-.758-.828-1.133-1.938-1.035-3.055l1.611-18.348c.301-3.414.074-6.848-.67-10.203l-14.371-64.668-13.418-8.051-14.006 91.352-1.057 14.426c.012 9.359 7.559 17.414 17.191 18.039l27.07 1.695c2.029.129 3.641 1.758 3.744 3.785.105 2.031-1.33 3.816-3.336 4.152l-70.746 11.793z" fill="#4c241d"/></g><g><path d="m126.362 122.008 19.288-4.937-7.349-33.802c-2.742-11.041-14.621-18.049-25.184-15.426-10.564 2.624-16.904 13.701-14.162 24.742l4.615 18.583c1.038 4.178 3.553 7.578 6.807 9.738" fill="#e7d1c4"/><path d="m126.359 126.008c-1.785 0-3.41-1.199-3.873-3.008-.549-2.141.742-4.32 2.883-4.867l15.553-3.98-6.529-30.031c-1.02-4.098-3.881-7.879-7.822-10.266-3.893-2.359-8.447-3.141-12.488-2.129-8.406 2.09-13.451 11.012-11.244 19.895l4.615 18.582c.758 3.059 2.582 5.676 5.137 7.371 1.84 1.223 2.342 3.703 1.119 5.543-1.221 1.84-3.707 2.344-5.545 1.121-4.225-2.805-7.234-7.105-8.477-12.105l-4.615-18.582c-3.27-13.164 4.393-26.438 17.08-29.59 6.094-1.508 12.857-.402 18.561 3.051 5.738 3.473 9.918 9.047 11.471 15.293l7.375 33.914c.457 2.105-.832 4.191-2.916 4.727l-19.289 4.938c-.334.084-.667.123-.996.123z" fill="#4c241d"/></g><g><path d="m138.318 78.175-44.636 8.759-2.256-11.496c-.881-4.49 2.045-8.844 6.534-9.725l28.377-5.568c4.49-.881 8.844 2.045 9.725 6.534z" fill="#6b4f5b"/><path d="m93.678 90.934c-1.873 0-3.547-1.32-3.922-3.23l-2.256-11.496c-1.303-6.645 3.043-13.113 9.689-14.422l28.379-5.566c3.217-.633 6.49.023 9.215 1.859 2.725 1.828 4.572 4.609 5.205 7.832l2.256 11.496c.203 1.039-.014 2.121-.605 3-.592.883-1.51 1.492-2.551 1.695l-44.637 8.758c-.26.051-.517.074-.773.074zm34.265-26.945c-.277 0-.555.027-.834.082l-28.379 5.566c-2.318.457-3.834 2.711-3.379 5.031l1.484 7.57 36.787-7.219-1.486-7.57c-.221-1.125-.865-2.094-1.814-2.734-.715-.476-1.537-.726-2.379-.726z" fill="#4c241d"/></g><g><path d="m186.234 164.215-26.009 12.143-22.831-31.344c-4.155-5.704-11.142-7.692-15.606-4.441-4.464 3.251-4.715 10.512-.56 16.216l24.36 33.443c5.803 7.968 15.563 10.744 21.798 6.203l25.685-18.708z" fill="#fff"/><path d="m160.461 202.625c-1.701 0-3.457-.25-5.23-.754-4.973-1.414-9.547-4.711-12.877-9.285l-24.357-33.441c-5.445-7.48-4.799-17.262 1.438-21.809 6.232-4.539 15.744-2.16 21.193 5.32l20.891 28.68 23.025-10.746c1.957-.91 4.285-.109 5.26 1.82l6.836 13.512c.887 1.75.373 3.883-1.213 5.039l-25.684 18.707c-2.69 1.957-5.878 2.957-9.282 2.957zm-33.678-59.625c-.98 0-1.891.258-2.639.805-2.629 1.914-2.482 6.781.318 10.629l24.357 33.441c2.283 3.137 5.338 5.375 8.6 6.301 2.906.836 5.609.484 7.611-.977l22.934-16.703-3.551-7.016-22.498 10.5c-1.729.812-3.795.281-4.924-1.27l-22.83-31.344c-2.003-2.748-4.917-4.366-7.378-4.366z" fill="#4c241d"/></g><g><path d="m193.071 177.726 16.659-12.135c2.52-1.836 3.075-5.367 1.24-7.887-1.59-2.183-4.504-2.934-6.952-1.792l-17.784 8.303z" fill="#e7d1c4"/><path d="m193.07 181.727c-.312 0-.627-.035-.938-.109-1.141-.277-2.102-1.039-2.631-2.086l-6.836-13.512c-.49-.965-.566-2.09-.213-3.109.354-1.023 1.107-1.863 2.088-2.32l17.783-8.305c4.172-1.953 9.164-.66 11.879 3.062 1.518 2.082 2.133 4.633 1.732 7.176-.4 2.547-1.768 4.781-3.85 6.301l-16.66 12.137c-.69.499-1.516.765-2.354.765zm-1.402-15.633 2.848 5.629 12.859-9.367c.48-.348.617-.824.658-1.074.039-.25.053-.746-.295-1.223-.463-.637-1.322-.844-2.031-.523z" fill="#4c241d"/></g><path d="m164 250.364h-8c-2.209 0-4-1.789-4-4s1.791-4 4-4h8c2.209 0 4 1.789 4 4s-1.791 4-4 4z" fill="#4c241d"/><path d="m188 105.875c-2.209 0-4-1.789-4-4v-5.66c0-2.211 1.791-4 4-4s4 1.789 4 4v5.66c0 2.211-1.791 4-4 4z" fill="#ffce56"/><path d="m188 128.512c-2.209 0-4-1.789-4-4v-5.66c0-2.211 1.791-4 4-4s4 1.789 4 4v5.66c0 2.211-1.791 4-4 4z" fill="#ffce56"/><path d="m179.512 114.364h-5.66c-2.209 0-4-1.789-4-4s1.791-4 4-4h5.66c2.209 0 4 1.789 4 4s-1.791 4-4 4z" fill="#ffce56"/><path d="m202.148 114.364h-5.66c-2.209 0-4-1.789-4-4s1.791-4 4-4h5.66c2.209 0 4 1.789 4 4s-1.791 4-4 4z" fill="#ffce56"/><path d="m240 274.364h-200c-2.209 0-4-1.789-4-4s1.791-4 4-4h200c2.209 0 4 1.789 4 4s-1.791 4-4 4z" fill="#4c241d"/></g></svg>